<?xml version="1.0" standalone="yes"?><svg xmlns="http://www.w3.org/2000/svg" version="1.1" width="300" height="300" viewBox="0 0 300 300" shape-rendering="crispEdges"><rect x="0" y="0" width="300" height="300" fill="white"/><path fill="black" d="M0 0h12v12H0V0M12 0h12v12H12V0M24 0h12v12H24V0M36 0h12v12H36V0M48 0h12v12H48V0M60 0h12v12H60V0M72 0h12v12H72V0M96 0h12v12H96V0M108 0h12v12H108V0M180 0h12v12H180V0M192 0h12v12H192V0M216 0h12v12H216V0M228 0h12v12H228V0M240 0h12v12H240V0M252 0h12v12H252V0M264 0h12v12H264V0M276 0h12v12H276V0M288 0h12v12H288V0M0 12h12v12H0V12M72 12h12v12H72V12M108 12h12v12H108V12M120 12h12v12H120V12M156 12h12v12H156V12M168 12h12v12H168V12M192 12h12v12H192V12M216 12h12v12H216V12M288 12h12v12H288V12M0 24h12v12H0V24M24 24h12v12H24V24M36 24h12v12H36V24M48 24h12v12H48V24M72 24h12v12H72V24M96 24h12v12H96V24M120 24h12v12H120V24M144 24h12v12H144V24M168 24h12v12H168V24M180 24h12v12H180V24M192 24h12v12H192V24M216 24h12v12H216V24M240 24h12v12H240V24M252 24h12v12H252V24M264 24h12v12H264V24M288 24h12v12H288V24M0 36h12v12H0V36M24 36h12v12H24V36M36 36h12v12H36V36M48 36h12v12H48V36M72 36h12v12H72V36M108 36h12v12H108V36M120 36h12v12H120V36M144 36h12v12H144V36M168 36h12v12H168V36M216 36h12v12H216V36M240 36h12v12H240V36M252 36h12v12H252V36M264 36h12v12H264V36M288 36h12v12H288V36M0 48h12v12H0V48M24 48h12v12H24V48M36 48h12v12H36V48M48 48h12v12H48V48M72 48h12v12H72V48M108 48h12v12H108V48M120 48h12v12H120V48M132 48h12v12H132V48M144 48h12v12H144V48M156 48h12v12H156V48M168 48h12v12H168V48M180 48h12v12H180V48M216 48h12v12H216V48M240 48h12v12H240V48M252 48h12v12H252V48M264 48h12v12H264V48M288 48h12v12H288V48M0 60h12v12H0V60M72 60h12v12H72V60M96 60h12v12H96V60M108 60h12v12H108V60M132 60h12v12H132V60M180 60h12v12H180V60M216 60h12v12H216V60M288 60h12v12H288V60M0 72h12v12H0V72M12 72h12v12H12V72M24 72h12v12H24V72M36 72h12v12H36V72M48 72h12v12H48V72M60 72h12v12H60V72M72 72h12v12H72V72M96 72h12v12H96V72M120 72h12v12H120V72M144 72h12v12H144V72M168 72h12v12H168V72M192 72h12v12H192V72M216 72h12v12H216V72M228 72h12v12H228V72M240 72h12v12H240V72M252 72h12v12H252V72M264 72h12v12H264V72M276 72h12v12H276V72M288 72h12v12H288V72M120 84h12v12H120V84M132 84h12v12H132V84M168 84h12v12H168V84M180 84h12v12H180V84M192 84h12v12H192V84M0 96h12v12H0V96M24 96h12v12H24V96M72 96h12v12H72V96M84 96h12v12H84V96M120 96h12v12H120V96M132 96h12v12H132V96M144 96h12v12H144V96M156 96h12v12H156V96M168 96h12v12H168V96M192 96h12v12H192V96M228 96h12v12H228V96M264 96h12v12H264V96M288 96h12v12H288V96M12 108h12v12H12V108M24 108h12v12H24V108M48 108h12v12H48V108M60 108h12v12H60V108M96 108h12v12H96V108M156 108h12v12H156V108M168 108h12v12H168V108M216 108h12v12H216V108M252 108h12v12H252V108M264 108h12v12H264V108M288 108h12v12H288V108M12 120h12v12H12V120M60 120h12v12H60V120M72 120h12v12H72V120M84 120h12v12H84V120M96 120h12v12H96V120M120 120h12v12H120V120M144 120h12v12H144V120M180 120h12v12H180V120M204 120h12v12H204V120M216 120h12v12H216V120M228 120h12v12H228V120M252 120h12v12H252V120M264 120h12v12H264V120M288 120h12v12H288V120M0 132h12v12H0V132M24 132h12v12H24V132M84 132h12v12H84V132M120 132h12v12H120V132M144 132h12v12H144V132M156 132h12v12H156V132M252 132h12v12H252V132M276 132h12v12H276V132M36 144h12v12H36V144M60 144h12v12H60V144M72 144h12v12H72V144M96 144h12v12H96V144M120 144h12v12H120V144M132 144h12v12H132V144M144 144h12v12H144V144M156 144h12v12H156V144M180 144h12v12H180V144M192 144h12v12H192V144M216 144h12v12H216V144M240 144h12v12H240V144M252 144h12v12H252V144M288 144h12v12H288V144M24 156h12v12H24V156M84 156h12v12H84V156M108 156h12v12H108V156M144 156h12v12H144V156M180 156h12v12H180V156M228 156h12v12H228V156M252 156h12v12H252V156M264 156h12v12H264V156M288 156h12v12H288V156M0 168h12v12H0V168M12 168h12v12H12V168M48 168h12v12H48V168M72 168h12v12H72V168M108 168h12v12H108V168M144 168h12v12H144V168M156 168h12v12H156V168M168 168h12v12H168V168M180 168h12v12H180V168M204 168h12v12H204V168M216 168h12v12H216V168M240 168h12v12H240V168M252 168h12v12H252V168M264 168h12v12H264V168M288 168h12v12H288V168M24 180h12v12H24V180M60 180h12v12H60V180M96 180h12v12H96V180M132 180h12v12H132V180M144 180h12v12H144V180M168 180h12v12H168V180M192 180h12v12H192V180M204 180h12v12H204V180M216 180h12v12H216V180M252 180h12v12H252V180M0 192h12v12H0V192M12 192h12v12H12V192M24 192h12v12H24V192M60 192h12v12H60V192M72 192h12v12H72V192M108 192h12v12H108V192M156 192h12v12H156V192M168 192h12v12H168V192M180 192h12v12H180V192M192 192h12v12H192V192M204 192h12v12H204V192M216 192h12v12H216V192M228 192h12v12H228V192M240 192h12v12H240V192M252 192h12v12H252V192M276 192h12v12H276V192M96 204h12v12H96V204M108 204h12v12H108V204M156 204h12v12H156V204M168 204h12v12H168V204M192 204h12v12H192V204M240 204h12v12H240V204M252 204h12v12H252V204M264 204h12v12H264V204M0 216h12v12H0V216M12 216h12v12H12V216M24 216h12v12H24V216M36 216h12v12H36V216M48 216h12v12H48V216M60 216h12v12H60V216M72 216h12v12H72V216M96 216h12v12H96V216M108 216h12v12H108V216M120 216h12v12H120V216M132 216h12v12H132V216M192 216h12v12H192V216M216 216h12v12H216V216M240 216h12v12H240V216M288 216h12v12H288V216M0 228h12v12H0V228M72 228h12v12H72V228M156 228h12v12H156V228M180 228h12v12H180V228M192 228h12v12H192V228M240 228h12v12H240V228M276 228h12v12H276V228M288 228h12v12H288V228M0 240h12v12H0V240M24 240h12v12H24V240M36 240h12v12H36V240M48 240h12v12H48V240M72 240h12v12H72V240M108 240h12v12H108V240M132 240h12v12H132V240M144 240h12v12H144V240M156 240h12v12H156V240M180 240h12v12H180V240M192 240h12v12H192V240M204 240h12v12H204V240M216 240h12v12H216V240M228 240h12v12H228V240M240 240h12v12H240V240M252 240h12v12H252V240M0 252h12v12H0V252M24 252h12v12H24V252M36 252h12v12H36V252M48 252h12v12H48V252M72 252h12v12H72V252M108 252h12v12H108V252M120 252h12v12H120V252M144 252h12v12H144V252M204 252h12v12H204V252M228 252h12v12H228V252M252 252h12v12H252V252M264 252h12v12H264V252M0 264h12v12H0V264M24 264h12v12H24V264M36 264h12v12H36V264M48 264h12v12H48V264M72 264h12v12H72V264M96 264h12v12H96V264M144 264h12v12H144V264M156 264h12v12H156V264M168 264h12v12H168V264M192 264h12v12H192V264M204 264h12v12H204V264M240 264h12v12H240V264M252 264h12v12H252V264M264 264h12v12H264V264M276 264h12v12H276V264M288 264h12v12H288V264M0 276h12v12H0V276M72 276h12v12H72V276M108 276h12v12H108V276M120 276h12v12H120V276M132 276h12v12H132V276M144 276h12v12H144V276M168 276h12v12H168V276M192 276h12v12H192V276M204 276h12v12H204V276M216 276h12v12H216V276M0 288h12v12H0V288M12 288h12v12H12V288M24 288h12v12H24V288M36 288h12v12H36V288M48 288h12v12H48V288M60 288h12v12H60V288M72 288h12v12H72V288M96 288h12v12H96V288M156 288h12v12H156V288M168 288h12v12H168V288M192 288h12v12H192V288M228 288h12v12H228V288M240 288h12v12H240V288M252 288h12v12H252V288M288 288h12v12H288V288"/></svg>